<svg width="160" height="68" viewBox="0 0 160 68" fill="none" xmlns="http://www.w3.org/2000/svg">
<path d="M9.41942 48.9175L14.6594 56.0975C14.9661 56.4975 15.2794 56.8042 15.5994 57.0175C15.9194 57.2175 16.2861 57.3242 16.6994 57.3375V57.5375H15.0594C14.9128 57.5375 14.6661 57.5309 14.3194 57.5175C13.9861 57.5042 13.6061 57.4509 13.1794 57.3575C12.7528 57.2642 12.3194 57.1042 11.8794 56.8775C11.4528 56.6375 11.0794 56.3042 10.7594 55.8775C10.6928 55.7842 10.5594 55.6042 10.3594 55.3375C10.1594 55.0709 9.92609 54.7509 9.65942 54.3775C9.39276 54.0042 9.11276 53.6242 8.81942 53.2375C8.53942 52.8375 8.27276 52.4642 8.01942 52.1175C7.76609 51.7709 7.55942 51.4909 7.39942 51.2775C7.25276 51.0509 7.17942 50.9375 7.17942 50.9375L9.41942 48.9175ZM14.4394 43.6775L8.41942 50.8175L7.17942 50.9375L12.6794 43.6775H14.4394ZM15.8394 43.5375V43.7175H15.7594C15.3194 43.7175 14.9061 43.8109 14.5194 43.9975C14.1461 44.1709 13.8261 44.4042 13.5594 44.6975L11.9394 44.6575C12.0994 44.4309 12.1261 44.2175 12.0194 44.0175C11.9128 43.8175 11.7261 43.7175 11.4594 43.7175H11.2594V43.5375H15.7594H15.8394ZM6.53942 43.5375V57.5375H3.53942V43.5375H6.53942ZM3.59942 56.0775V57.5375H1.99942V57.3375C2.01276 57.3375 2.05276 57.3375 2.11942 57.3375C2.19942 57.3375 2.24609 57.3375 2.25942 57.3375C2.60609 57.3375 2.89942 57.2175 3.13942 56.9775C3.39276 56.7242 3.52609 56.4242 3.53942 56.0775H3.59942ZM3.59942 44.9975H3.53942C3.52609 44.6509 3.39276 44.3575 3.13942 44.1175C2.89942 43.8642 2.60609 43.7375 2.25942 43.7375C2.24609 43.7375 2.19942 43.7375 2.11942 43.7375C2.05276 43.7375 2.01276 43.7375 1.99942 43.7375V43.5375H3.59942V44.9975ZM6.47942 56.0775H6.53942C6.55276 56.4242 6.67942 56.7242 6.91942 56.9775C7.17276 57.2175 7.47276 57.3375 7.81942 57.3375C7.83276 57.3375 7.87276 57.3375 7.93942 57.3375C8.01942 57.3375 8.06609 57.3375 8.07942 57.3375V57.5375H6.47942V56.0775ZM6.47942 44.9975V43.5375H8.07942V43.7375C8.06609 43.7375 8.01942 43.7375 7.93942 43.7375C7.87276 43.7375 7.83276 43.7375 7.81942 43.7375C7.47276 43.7375 7.17276 43.8642 6.91942 44.1175C6.67942 44.3575 6.55276 44.6509 6.53942 44.9975H6.47942ZM21.6761 43.5375V57.5375H18.6761V43.5375H21.6761ZM18.7361 56.0775V57.5375H17.1361V57.3375C17.1361 57.3375 17.1761 57.3375 17.2561 57.3375C17.3495 57.3375 17.3961 57.3375 17.3961 57.3375C17.7428 57.3375 18.0361 57.2175 18.2761 56.9775C18.5295 56.7242 18.6628 56.4242 18.6761 56.0775H18.7361ZM18.7361 44.9975H18.6761C18.6628 44.6509 18.5295 44.3575 18.2761 44.1175C18.0361 43.8642 17.7428 43.7375 17.3961 43.7375C17.3961 43.7375 17.3495 43.7375 17.2561 43.7375C17.1761 43.7375 17.1361 43.7375 17.1361 43.7375V43.5375H18.7361V44.9975ZM21.6161 56.0775H21.6761C21.6895 56.4242 21.8161 56.7242 22.0561 56.9775C22.3095 57.2175 22.6095 57.3375 22.9561 57.3375C22.9561 57.3375 22.9961 57.3375 23.0761 57.3375C23.1561 57.3375 23.2028 57.3375 23.2161 57.3375V57.5375H21.6161V56.0775ZM21.6161 44.9975V43.5375H23.2161V43.7375C23.2028 43.7375 23.1561 43.7375 23.0761 43.7375C22.9961 43.7375 22.9561 43.7375 22.9561 43.7375C22.6095 43.7375 22.3095 43.8642 22.0561 44.1175C21.8161 44.3575 21.6895 44.6509 21.6761 44.9975H21.6161ZM32.2105 43.5975V57.5375H29.2105V43.5975H32.2105ZM37.1105 43.5175V44.3575H24.3105V43.5175H37.1105ZM37.1105 44.2975V46.6575L36.9105 46.6375V46.4175C36.9105 45.7909 36.7239 45.2975 36.3505 44.9375C35.9905 44.5642 35.4972 44.3709 34.8705 44.3575V44.2975H37.1105ZM37.1105 43.1575V43.7375L34.6705 43.5175C34.9639 43.5175 35.2705 43.4975 35.5905 43.4575C35.9239 43.4175 36.2305 43.3709 36.5105 43.3175C36.7905 43.2642 36.9905 43.2109 37.1105 43.1575ZM29.2705 56.0775V57.5375H27.6705V57.3375C27.6705 57.3375 27.7105 57.3375 27.7905 57.3375C27.8839 57.3375 27.9305 57.3375 27.9305 57.3375C28.2772 57.3375 28.5705 57.2175 28.8105 56.9775C29.0639 56.7242 29.1972 56.4242 29.2105 56.0775H29.2705ZM32.1505 56.0775H32.2105C32.2239 56.4242 32.3505 56.7242 32.5905 56.9775C32.8439 57.2175 33.1439 57.3375 33.4905 57.3375C33.4905 57.3375 33.5305 57.3375 33.6105 57.3375C33.7039 57.3375 33.7505 57.3375 33.7505 57.3375V57.5375H32.1505V56.0775ZM26.5305 44.2975V44.3575C25.9172 44.3709 25.4239 44.5642 25.0505 44.9375C24.6905 45.2975 24.5105 45.7909 24.5105 46.4175V46.6375L24.3105 46.6575V44.2975H26.5305ZM24.3105 43.1575C24.4439 43.2109 24.6439 43.2642 24.9105 43.3175C25.1905 43.3709 25.4972 43.4175 25.8305 43.4575C26.1639 43.4975 26.4705 43.5175 26.7505 43.5175L24.3105 43.7375V43.1575ZM51.6151 51.6975L51.795 55.1375C51.5017 55.6309 51.1084 56.0775 50.615 56.4775C50.1217 56.8775 49.5084 57.2042 48.775 57.4575C48.0417 57.6975 47.175 57.8175 46.175 57.8175C44.5484 57.8042 43.1217 57.5109 41.895 56.9375C40.6817 56.3509 39.7417 55.5175 39.075 54.4375C38.4084 53.3575 38.075 52.0509 38.075 50.5175C38.075 49.0242 38.4017 47.7375 39.055 46.6575C39.7084 45.5642 40.6417 44.7242 41.855 44.1375C43.0817 43.5509 44.5417 43.2575 46.235 43.2575C47.3017 43.2575 48.255 43.3642 49.095 43.5775C49.9484 43.7909 50.6617 44.0509 51.235 44.3575L51.255 47.7775H51.075C50.715 46.4575 50.1284 45.5175 49.315 44.9575C48.5017 44.3842 47.5484 44.0975 46.455 44.0975C45.3884 44.0975 44.475 44.3575 43.715 44.8775C42.955 45.3975 42.3684 46.1309 41.955 47.0775C41.5417 48.0242 41.335 49.1575 41.335 50.4775C41.335 51.7975 41.5284 52.9375 41.915 53.8975C42.315 54.8575 42.875 55.6042 43.595 56.1375C44.3284 56.6709 45.1884 56.9509 46.175 56.9775C47.2017 56.9775 48.0684 56.8109 48.775 56.4775C49.4817 56.1442 50.0484 55.5909 50.475 54.8175C50.915 54.0442 51.2417 53.0042 51.455 51.6975H51.6151ZM67.5819 43.5375V57.5375H64.5819V43.5375H67.5819ZM58.1019 43.5375V57.5375H55.1019V43.5375H58.1019ZM64.7619 50.1375V50.9975H57.9019V50.1375H64.7619ZM55.1619 56.0775V57.5375H53.5619V57.3375C53.5619 57.3375 53.6019 57.3375 53.6819 57.3375C53.7753 57.3375 53.8219 57.3375 53.8219 57.3375C54.1686 57.3375 54.4619 57.2175 54.7019 56.9775C54.9553 56.7242 55.0886 56.4242 55.1019 56.0775H55.1619ZM55.1619 44.9975H55.1019C55.0886 44.6509 54.9553 44.3575 54.7019 44.1175C54.4619 43.8642 54.1686 43.7375 53.8219 43.7375C53.8219 43.7375 53.7753 43.7375 53.6819 43.7375C53.6019 43.7375 53.5619 43.7375 53.5619 43.7375V43.5375H55.1619V44.9975ZM58.0419 56.0775H58.1019C58.1153 56.4242 58.2419 56.7242 58.4819 56.9775C58.7353 57.2175 59.0353 57.3375 59.3819 57.3375C59.3819 57.3375 59.4219 57.3375 59.5019 57.3375C59.5819 57.3375 59.6286 57.3375 59.6419 57.3375V57.5375H58.0419V56.0775ZM58.0419 44.9975V43.5375H59.6419V43.7375C59.6286 43.7375 59.5819 43.7375 59.5019 43.7375C59.4219 43.7375 59.3819 43.7375 59.3819 43.7375C59.0353 43.7375 58.7353 43.8642 58.4819 44.1175C58.2419 44.3575 58.1153 44.6509 58.1019 44.9975H58.0419ZM64.6419 56.0775V57.5375H63.0419V57.3375C63.0553 57.3375 63.1019 57.3375 63.1819 57.3375C63.2619 57.3375 63.3019 57.3375 63.3019 57.3375C63.6486 57.3375 63.9486 57.2175 64.2019 56.9775C64.4553 56.7242 64.5819 56.4242 64.5819 56.0775H64.6419ZM64.6419 44.9975H64.5819C64.5819 44.6509 64.4553 44.3575 64.2019 44.1175C63.9486 43.8642 63.6486 43.7375 63.3019 43.7375C63.3019 43.7375 63.2619 43.7375 63.1819 43.7375C63.1019 43.7375 63.0553 43.7375 63.0419 43.7375V43.5375H64.6419V44.9975ZM67.5219 56.0775H67.5819C67.5953 56.4242 67.7219 56.7242 67.9619 56.9775C68.2153 57.2175 68.5153 57.3375 68.8619 57.3375C68.8619 57.3375 68.9019 57.3375 68.9819 57.3375C69.0753 57.3375 69.1219 57.3375 69.1219 57.3375V57.5375H67.5219V56.0775ZM67.5219 44.9975V43.5375H69.1219V43.7375C69.1219 43.7375 69.0753 43.7375 68.9819 43.7375C68.9019 43.7375 68.8619 43.7375 68.8619 43.7375C68.5153 43.7375 68.2153 43.8642 67.9619 44.1175C67.7219 44.3575 67.5953 44.6509 67.5819 44.9975H67.5219ZM75.348 43.5375V57.5375H72.348V43.5375H75.348ZM72.408 56.0775V57.5375H70.808V57.3375C70.808 57.3375 70.848 57.3375 70.928 57.3375C71.0214 57.3375 71.068 57.3375 71.068 57.3375C71.4147 57.3375 71.708 57.2175 71.948 56.9775C72.2014 56.7242 72.3347 56.4242 72.348 56.0775H72.408ZM72.408 44.9975H72.348C72.3347 44.6509 72.2014 44.3575 71.948 44.1175C71.708 43.8642 71.4147 43.7375 71.068 43.7375C71.068 43.7375 71.0214 43.7375 70.928 43.7375C70.848 43.7375 70.808 43.7375 70.808 43.7375V43.5375H72.408V44.9975ZM75.288 56.0775H75.348C75.3614 56.4242 75.488 56.7242 75.728 56.9775C75.9814 57.2175 76.2814 57.3375 76.628 57.3375C76.628 57.3375 76.668 57.3375 76.748 57.3375C76.828 57.3375 76.8747 57.3375 76.888 57.3375V57.5375H75.288V56.0775ZM75.288 44.9975V43.5375H76.888V43.7375C76.8747 43.7375 76.828 43.7375 76.748 43.7375C76.668 43.7375 76.628 43.7375 76.628 43.7375C76.2814 43.7375 75.9814 43.8642 75.728 44.1175C75.488 44.3575 75.3614 44.6509 75.348 44.9975H75.288Z" fill="#432818"/>
<g clip-path="url(#clip0_108_2)">
<path d="M21.4663 0C17.9346 0 14.5476 1.51408 12.0503 4.20916L3.90024 13.0048C1.40296 15.6998 0 19.3551 0 23.1665C0 31.1035 5.9619 37.5375 13.3163 37.5375C16.848 37.5375 20.235 36.0234 22.7323 33.3283L28.3697 27.2444C28.3699 27.2445 28.3697 27.2442 28.3697 27.2444L44.7954 9.51777C45.9881 8.23062 47.6057 7.50751 49.2924 7.50751C52.1163 7.50751 54.5104 9.49376 55.3404 12.2423L60.5243 6.64785C58.1594 2.65058 54.0128 0 49.2924 0C45.7607 0 42.3737 1.51408 39.8764 4.20916L17.8133 28.0198C16.6206 29.3069 15.003 30.03 13.3163 30.03C9.80387 30.03 6.95652 26.9572 6.95652 23.1665C6.95652 21.3462 7.62656 19.6005 8.81925 18.3133L16.9693 9.51777C18.162 8.23062 19.7796 7.50751 21.4663 7.50751C24.2903 7.50751 26.6843 9.49384 27.5143 12.2425L32.6983 6.64798C30.3334 2.65065 26.1868 0 21.4663 0Z" fill="#432818"/>
<path d="M45.6394 28.0198C44.4467 29.3069 42.8291 30.03 41.1424 30.03C38.3188 30.03 35.925 28.0443 35.0947 25.2962L29.9109 30.8905C32.2759 34.8873 36.4224 37.5375 41.1424 37.5375C44.6741 37.5375 48.0611 36.0234 50.5584 33.3283L72.6214 9.51777C73.8141 8.23062 75.4318 7.50751 77.1185 7.50751C80.631 7.50751 83.4783 10.5804 83.4783 14.371C83.4783 16.1913 82.8082 17.9371 81.6155 19.2242L73.4655 28.0198C72.2728 29.3069 70.6552 30.03 68.9685 30.03C66.1447 30.03 63.7507 28.0439 62.9206 25.2955L57.7368 30.89C60.1017 34.8871 64.2482 37.5375 68.9685 37.5375C72.5002 37.5375 75.8872 36.0234 78.3845 33.3283L86.5345 24.5328C89.0318 21.8377 90.4348 18.1824 90.4348 14.371C90.4348 6.43411 84.4729 0 77.1185 0C73.5868 0 70.1998 1.51408 67.7025 4.20916L45.6394 28.0198Z" fill="#432818"/>
</g>
<defs>
<clipPath id="clip0_108_2">
<rect width="90.4348" height="37.5375" fill="white"/>
</clipPath>
</defs>
</svg>
